HIERARCHY
ROOT Hips
{
	OFFSET 0.0000 0.0000 0.0000
	CHANNELS 6 Xposition Yposition Zposition Zrotation Xrotation Yrotation
	JOINT Spine1
	{
		OFFSET -0.0137 5.0038 -0.0537
		CHANNELS 3 Zrotation Xrotation Yrotation
		JOINT Spine2
		{
			OFFSET -0.0000 7.1253 -0.0298
			CHANNELS 3 Zrotation Xrotation Yrotation
			JOINT Chest
			{
				OFFSET -0.0000 7.5501 -0.8160
				CHANNELS 3 Zrotation Xrotation Yrotation
				JOINT Neck1
				{
					OFFSET -0.1817 26.3113 -0.5533
					CHANNELS 3 Zrotation Xrotation Yrotation
					JOINT Neck2
					{
						OFFSET -0.0000 7.7094 2.3026
						CHANNELS 3 Zrotation Xrotation Yrotation
						JOINT Head
						{
							OFFSET -0.0000 6.1289 1.9537
							CHANNELS 3 Zrotation Xrotation Yrotation
							JOINT Jaw
							{
								OFFSET 0.0026 0.4756 3.0949
								CHANNELS 3 Zrotation Xrotation Yrotation
								End Site
								{
									OFFSET 0.0 1.0 0.0
								}
							}
							JOINT LeftEye
							{
								OFFSET 3.2064 5.3802 7.5869
								CHANNELS 3 Zrotation Xrotation Yrotation
								End Site
								{
									OFFSET 0.0 1.0 0.0
								}
							}
							JOINT RightEye
							{
								OFFSET -3.2224 5.3619 7.5582
								CHANNELS 3 Zrotation Xrotation Yrotation
								End Site
								{
									OFFSET 0.0 1.0 0.0
								}
							}
						}
					}
				}
				JOINT LeftShoulder
				{
					OFFSET 1.6217 23.2372 5.1134
					CHANNELS 3 Zrotation Xrotation Yrotation
					JOINT LeftArm
					{
						OFFSET 14.9198 0.0000 -5.5023
						CHANNELS 3 Zrotation Xrotation Yrotation
						JOINT LeftForeArm
						{
							OFFSET 28.7393 0.0000 -0.0026
							CHANNELS 3 Zrotation Xrotation Yrotation
							JOINT LeftHand
							{
								OFFSET 27.0940 -0.0000 0.0026
								CHANNELS 3 Zrotation Xrotation Yrotation
								JOINT LeftHandThumbEnd
								{
									OFFSET 12.2686 -3.2202 4.8331
									CHANNELS 3 Zrotation Xrotation Yrotation
									End Site
									{
										OFFSET 0.0 1.0 0.0
									}
								}
								JOINT LeftHandMiddleEnd
								{
									OFFSET 19.0120 -0.3129 -0.0340
									CHANNELS 3 Zrotation Xrotation Yrotation
									End Site
									{
										OFFSET 0.0 1.0 0.0
									}
								}
							}
						}
					}
				}
				JOINT RightShoulder
				{
					OFFSET -1.3801 23.1803 5.2142
					CHANNELS 3 Zrotation Xrotation Yrotation
					JOINT RightArm
					{
						OFFSET -15.0372 0.0000 -5.5456
						CHANNELS 3 Zrotation Xrotation Yrotation
						JOINT RightForeArm
						{
							OFFSET -28.7366 0.0000 -0.0026
							CHANNELS 3 Zrotation Xrotation Yrotation
							JOINT RightHand
							{
								OFFSET -27.1336 -0.0000 0.0026
								CHANNELS 3 Zrotation Xrotation Yrotation
								JOINT RightHandThumbEnd
								{
									OFFSET -12.2642 -3.2115 4.8040
									CHANNELS 3 Zrotation Xrotation Yrotation
									End Site
									{
										OFFSET 0.0 1.0 0.0
									}
								}
								JOINT RightHandMiddleEnd
								{
									OFFSET -19.0006 -0.3066 -0.0316
									CHANNELS 3 Zrotation Xrotation Yrotation
									End Site
									{
										OFFSET 0.0 1.0 0.0
									}
								}
							}
						}
					}
				}
			}
		}
	}
	JOINT LeftLeg
	{
		OFFSET 10.0432 -8.4345 2.5957
		CHANNELS 3 Zrotation Xrotation Yrotation
		JOINT LeftShin
		{
			OFFSET -0.0000 -43.2218 -0.8029
			CHANNELS 3 Zrotation Xrotation Yrotation
			JOINT LeftFoot
			{
				OFFSET 0.0000 -42.1551 -3.4815
				CHANNELS 3 Zrotation Xrotation Yrotation
				JOINT LeftToeBase
				{
					OFFSET 0.0000 -5.0595 13.2315
					CHANNELS 3 Zrotation Xrotation Yrotation
					End Site
					{
						OFFSET 0.0 1.0 0.0
					}
				}
			}
		}
	}
	JOINT RightLeg
	{
		OFFSET -10.0473 -8.2953 2.6203
		CHANNELS 3 Zrotation Xrotation Yrotation
		JOINT RightShin
		{
			OFFSET 0.0000 -43.3622 -0.8056
			CHANNELS 3 Zrotation Xrotation Yrotation
			JOINT RightFoot
			{
				OFFSET 0.0000 -42.1174 -3.4784
				CHANNELS 3 Zrotation Xrotation Yrotation
				JOINT RightToeBase
				{
					OFFSET -0.0000 -5.0796 13.2842
					CHANNELS 3 Zrotation Xrotation Yrotation
					End Site
					{
						OFFSET 0.0 1.0 0.0
					}
				}
			}
		}
	}
}
MOTION
Frames: 15
Frame Time: 0.033333
3.8692 94.9931 0.1613 -0.2938 -1.5300 -11.8896 0.5334 8.4646 -0.6715 0.3591 -2.4270 -2.4185 2.8923 14.4569 -4.1766 -6.0900 4.1673 5.3460 0.5952 -3.4813 5.5482 -2.3237 -14.6366 7.6704 0.0302 0.1163 0.0604 0.7573 -10.4554 -3.8252 -0.7042 -10.4726 3.9519 9.9460 13.1252 -12.4871 -22.8865 -31.4839 -59.2704 0.1989 0.1388 -108.7413 -20.8589 22.6332 11.9873 -15.8359 10.5889 15.2991 -60.9619 1.5656 1.7778 -4.9805 19.1001 15.2524 77.9939 5.7411 18.8704 2.2571 -0.4702 126.9196 -35.9252 -64.6453 29.9460 15.4502 7.9894 -16.3475 50.5817 -3.2875 -5.2456 7.0570 -18.2428 16.7514 -0.0955 38.3159 -0.0986 -5.4510 -17.0436 -1.8221 1.6921 -0.0417 -2.0807 -10.3639 -22.1389 -6.0277 0.4704 31.7479 0.8378 9.7206 -10.7210 9.4655 -1.4574 0.1265 0.9004
4.0580 94.1169 0.3776 -0.5731 -1.5605 -12.5604 0.3252 8.9345 -0.7772 0.3161 -2.2726 -2.8915 2.9845 14.7134 -4.8833 -6.1171 3.5677 5.4338 0.9071 -3.5486 6.1654 -2.4685 -14.8508 8.6820 0.0274 0.1095 0.0580 0.7658 -10.4949 -3.8310 -0.7184 -10.5238 3.9546 11.5101 13.4638 -13.1661 -21.9608 -32.6310 -56.6950 0.0069 0.1123 -108.1880 -18.8532 17.9151 11.3122 -15.7747 10.5260 15.3515 -60.6537 1.5493 1.7425 -4.8373 19.4196 13.4972 78.5713 7.6909 16.9056 2.4122 -0.4224 129.5497 -29.2605 -63.5330 24.3673 15.4814 7.8730 -16.3467 50.7059 -3.3339 -5.2665 7.3375 -19.7946 16.5521 -0.0565 41.9446 -0.0389 -5.1533 -18.7873 -1.1954 1.6799 0.2028 -2.0761 -10.3802 -23.9305 -6.0671 0.5467 35.0001 0.8856 9.4769 -12.0835 10.4571 -1.4613 0.1836 0.8796
4.2239 93.1803 0.6062 -0.7450 -1.6468 -12.9945 0.1859 9.3231 -0.8352 0.2861 -2.1482 -3.3296 3.0724 15.1209 -5.5406 -6.3687 2.9364 5.5037 1.1901 -3.6249 6.7254 -2.5731 -15.1851 9.4906 0.0224 0.0861 0.0486 0.7701 -10.5439 -3.8483 -0.7334 -10.5833 3.9573 12.7123 13.8923 -13.5841 -22.9089 -33.6351 -51.5269 -0.0052 0.3055 -109.2308 -16.8475 14.1140 10.3307 -15.6992 10.4812 15.3528 -60.3419 1.5749 1.7227 -4.1611 19.8224 11.8538 78.6237 9.6648 14.0531 2.2957 -0.2439 132.1447 -23.5667 -62.3496 19.9094 15.4582 7.7482 -16.3201 50.8545 -3.3742 -5.2671 7.5348 -21.1665 16.5195 -0.0201 45.3739 0.0043 -4.9335 -20.5062 -0.8004 1.6621 0.5415 -2.0491 -10.6274 -25.5227 -5.8778 0.6134 38.2113 0.9092 9.4307 -13.5466 11.2533 -1.4607 0.2207 0.8647
4.3116 92.3965 0.9765 -0.6648 -1.8111 -12.8116 0.1430 9.4963 -0.8838 0.2723 -2.0623 -3.6677 3.0929 15.5960 -6.0431 -6.8616 2.3551 5.5544 1.4103 -3.7008 7.0727 -2.6205 -15.5666 9.8859 0.0153 0.0567 0.0333 0.7681 -10.5829 -3.8684 -0.7473 -10.6268 3.9514 13.0071 14.4042 -13.6246 -26.6197 -33.6748 -43.8521 0.1395 0.6754 -112.2106 -14.6209 11.0635 9.2268 -15.7257 10.4251 15.3463 -60.1905 1.6836 1.7855 -2.7764 20.2955 10.5217 78.0946 11.2140 10.4964 2.0004 0.0735 134.2531 -20.3022 -61.4319 17.8963 15.5128 7.6700 -16.2371 51.0599 -3.3546 -5.2335 7.5213 -21.9465 16.6595 -0.0093 47.8560 0.0164 -4.7578 -21.8306 -1.0422 1.6457 0.9188 -1.9980 -11.2528 -26.4509 -5.3751 0.6507 40.8709 0.9275 9.6807 -14.9781 11.2972 -1.4550 0.2586 0.8584
4.2507 91.9966 1.5712 -0.2380 -2.0934 -11.4365 0.2308 9.4174 -0.9331 0.2937 -2.0802 -3.8755 2.9990 15.9118 -6.2280 -7.4006 2.0748 5.5726 1.4748 -3.7280 6.8808 -2.4971 -15.8870 9.4729 0.0061 0.0387 0.0219 0.7642 -10.6321 -3.8830 -0.7633 -10.6815 3.9486 12.2550 15.1002 -13.2079 -32.7062 -31.2046 -35.2764 0.4250 0.8810 -116.5405 -12.6788 8.2652 8.0034 -15.7413 10.3851 15.3277 -60.2932 1.8511 1.9152 -0.9735 20.8828 9.5870 77.4582 11.6246 6.8225 1.7724 0.3551 135.1841 -20.7847 -60.8557 19.1517 15.7432 7.6294 -16.1106 51.4475 -3.3173 -5.1737 7.1917 -21.8175 16.6572 -0.0558 48.7933 -0.0688 -4.5559 -22.4696 -2.2039 1.6351 1.3505 -1.9635 -12.2875 -26.2015 -4.9274 0.6589 42.4997 0.9339 10.2438 -16.2500 10.1318 -1.4509 0.3372 0.8402
3.9956 92.2490 2.4164 0.3891 -2.4182 -8.1663 0.5058 9.1206 -1.0032 0.3976 -2.1248 -3.7806 2.8907 15.6267 -6.0706 -7.5504 2.2930 5.4382 1.3171 -3.6907 5.8586 -2.0170 -15.9855 7.8737 -0.0028 0.0369 0.0294 0.7537 -10.6891 -3.8818 -0.7707 -10.7567 3.9671 10.7631 15.7453 -12.1343 -39.6533 -24.4348 -28.8071 0.6905 0.6647 -121.0964 -12.1595 5.5351 6.7940 -15.7890 10.3750 15.3722 -60.5446 1.9548 2.1476 1.1253 21.4032 9.3423 76.7843 10.3682 3.7694 1.6949 0.3814 134.4774 -24.3691 -59.5872 22.1929 16.1799 7.5714 -16.0229 51.7234 -3.3094 -5.1073 6.5833 -20.6796 15.6677 -0.1545 47.4867 -0.2464 -4.3365 -21.8987 -4.0224 1.6439 1.7379 -1.9614 -13.4018 -24.0552 -5.2039 0.5705 41.9145 0.8397 11.1123 -16.8984 7.3223 -1.4543 0.4410 0.8038
3.5988 93.2707 3.3468 0.9891 -2.4533 -2.6624 0.9160 8.6062 -1.0068 0.6117 -2.2040 -3.3088 3.0082 14.6730 -5.3276 -6.8113 2.8828 5.0346 0.7855 -3.5953 3.6747 -0.9786 -15.7568 4.6175 -0.0121 0.0407 0.0323 0.7278 -10.7728 -3.8864 -0.7622 -10.8653 3.9815 9.0956 16.0466 -10.1482 -45.9158 -14.2228 -26.1025 0.7261 0.0572 -124.7128 -13.7402 3.7085 6.3756 -15.9255 10.2734 15.5077 -60.7732 1.8154 2.3035 3.2255 21.1829 9.9811 75.1144 7.9201 2.0820 1.3793 0.2129 132.6172 -28.9381 -56.7317 24.6150 16.6763 7.3850 -16.0090 51.8620 -3.4538 -4.9638 5.7442 -18.9963 12.9029 -0.2353 43.7807 -0.4073 -4.0062 -19.8720 -6.0416 1.6630 1.9587 -1.9267 -14.1724 -20.2258 -6.9900 0.3819 38.5174 0.6087 12.2723 -16.4774 3.1487 -1.4607 0.4478 0.7920
3.1837 94.8193 4.2513 1.4107 -1.9994 4.1479 1.4022 7.8383 -0.9074 0.8285 -2.3473 -2.2551 3.2936 13.2890 -3.8814 -4.8297 3.6783 4.2685 -0.2486 -3.4296 0.9149 0.4369 -14.8356 -0.3413 -0.0258 0.0557 0.0680 0.6770 -10.8351 -3.8655 -0.7367 -10.9465 4.0385 7.9038 15.6713 -7.3471 -51.0269 -3.5617 -25.0011 -0.1275 0.1557 -126.7824 -15.3358 4.0147 6.9961 -16.0491 10.1817 15.8632 -60.6621 1.4811 2.4362 4.5370 20.3003 11.5977 70.9739 4.6890 0.9882 0.8368 -0.0573 130.1377 -30.8951 -52.2003 22.2713 16.5068 7.1973 -16.0907 51.3066 -3.7433 -4.8049 4.9786 -17.2708 8.7357 -0.2889 38.1880 -0.5127 -3.8653 -16.4771 -7.9391 1.6738 1.6393 -1.8943 -14.4772 -15.9192 -10.1899 0.2322 33.0999 0.3333 13.2778 -14.3331 -1.2151 -1.4766 0.2932 0.7969
2.8159 96.4326 5.0041 1.6262 -1.0036 11.2365 1.9558 6.9339 -0.6594 0.9676 -2.6126 -0.5463 3.6098 11.6969 -1.9061 -2.0922 4.5321 3.1997 -1.5761 -3.3950 -2.1611 2.1032 -13.3873 -6.1896 -0.0296 0.0746 0.0712 0.6574 -10.7916 -3.8363 -0.7218 -10.8868 4.0141 7.0593 14.9041 -3.5452 -53.3343 5.7294 -22.3826 -2.2081 1.0041 -128.7927 -14.8653 4.7826 7.2635 -15.6965 10.3592 16.1097 -60.4628 1.4055 2.3576 4.0773 19.0437 13.8936 64.5630 0.6177 -1.9287 -0.3350 -0.0326 127.1577 -29.1366 -47.1207 14.8479 15.7109 6.9329 -15.8758 49.4723 -4.1021 -4.7480 4.4194 -15.9277 4.1305 -0.2898 31.7300 -0.5831 -4.0558 -12.6573 -9.4319 1.6698 1.1105 -1.8276 -14.3456 -12.3880 -14.4315 0.1411 27.1834 0.2302 13.9539 -10.7623 -4.2166 -1.4676 -0.0227 0.8959
2.5136 97.8207 5.4833 1.4619 0.3628 17.2874 2.6751 6.1661 -0.2126 0.9944 -2.8427 1.3494 3.8371 10.0709 0.1563 0.4056 4.8196 2.0748 -2.6585 -3.6128 -5.5615 3.5758 -11.9282 -11.1234 -0.0214 0.0614 0.0168 0.6696 -10.6793 -3.8423 -0.7142 -10.7376 3.9022 5.8024 14.5181 0.6094 -51.6516 12.8443 -16.6268 -3.6979 1.5649 -131.7480 -13.1993 4.0152 5.8431 -15.1043 10.6894 16.3255 -60.1279 1.4383 2.2800 1.9831 17.3761 16.3818 56.0438 -5.8665 -8.8571 -1.4610 -0.1861 122.1777 -24.2582 -41.8836 4.8326 14.3013 6.7063 -15.4323 47.3740 -4.2726 -4.7051 4.4007 -15.0781 0.2723 -0.2338 25.3445 -0.5366 -4.4216 -8.9635 -10.5733 1.6805 0.4984 -1.7720 -13.6118 -10.2139 -18.5197 0.0571 22.2520 0.1857 14.2675 -6.9517 -5.6038 -1.4494 -0.4839 1.0464
2.1978 98.9172 5.5659 1.2052 2.1571 21.7135 3.4190 5.7053 0.3444 0.9379 -3.1204 3.1580 3.7226 8.6132 2.0415 2.3074 4.2423 1.4417 -3.5136 -3.8736 -9.0229 4.7249 -10.9980 -15.3691 -0.0167 0.0326 -0.0234 0.6885 -10.6104 -3.8608 -0.7226 -10.6406 3.8303 3.5120 14.6869 4.3702 -47.0467 16.7034 -7.1441 -3.8200 1.6320 -134.7147 -11.1000 1.2431 2.5563 -14.9148 10.7245 16.4953 -59.6074 1.2639 2.3483 -0.8537 15.5378 18.9329 46.5337 -14.8379 -16.6139 -2.1016 -0.3648 111.9289 -17.9978 -34.0296 -4.2500 13.6852 7.3115 -15.7913 47.7419 -3.9013 -4.6777 4.7284 -15.0051 -2.4605 -0.1970 19.7034 -0.4655 -4.9314 -5.5467 -11.6203 1.6892 -0.3560 -1.7942 -12.4561 -9.2858 -21.5410 0.0366 18.1688 0.1187 14.2538 -3.7381 -6.5041 -1.4369 -0.9533 1.0934
1.8718 99.6541 5.4216 1.0496 4.0119 24.8806 4.1526 5.5939 1.0890 0.8703 -3.3227 4.5446 3.1534 7.3731 3.5735 3.1894 3.4160 1.4876 -4.2358 -4.1624 -12.3426 5.7488 -10.2812 -19.4296 -0.0197 -0.0016 -0.0371 0.6789 -10.6097 -3.8723 -0.7202 -10.6368 3.8114 0.2874 14.8769 7.5027 -42.3137 16.6654 3.3267 -2.9043 1.2250 -135.2201 -7.8193 -0.7078 -1.6066 -14.9710 10.6619 16.3020 -59.7280 1.1686 2.1789 -4.0843 14.2055 21.6672 36.2307 -23.0903 -20.0830 -2.0935 -1.6358 93.0276 -11.9199 -22.8239 -10.0756 14.2426 7.9385 -16.4120 49.3900 -3.3166 -4.7350 5.1201 -15.6036 -4.1293 -0.1491 15.4492 -0.4135 -5.5736 -3.0647 -12.5646 1.6959 -1.0335 -1.8549 -11.3020 -9.0679 -23.3990 0.0312 14.8957 0.0801 14.3731 -1.6018 -7.1347 -1.4371 -1.1470 1.0977
1.5615 99.9791 5.2004 0.7037 5.2223 27.2195 5.0389 5.8016 1.8163 0.8073 -3.3356 5.5900 2.5139 6.4517 4.6093 3.2122 3.0881 1.9853 -4.8202 -4.4814 -15.1809 6.2512 -9.5714 -22.9091 -0.0268 -0.0405 -0.0276 0.6395 -10.6880 -3.8756 -0.6979 -10.7385 3.8320 -2.6505 14.4834 9.6103 -40.8226 15.5612 11.4855 -2.0331 1.0094 -133.0099 -4.7242 -0.2615 -5.2795 -15.0168 10.6779 15.9639 -60.2586 1.2035 1.9219 -7.4890 13.7197 24.4281 25.5045 -27.4296 -17.3491 -0.5093 -2.2464 65.5593 -6.0269 -11.4990 -13.6920 15.2180 7.9386 -16.7317 50.3333 -3.2310 -4.8300 5.7006 -16.4401 -4.7724 -0.0823 13.2161 -0.3966 -6.0759 -1.7934 -13.8722 1.6992 -1.1371 -1.8790 -10.1977 -8.3727 -24.5257 0.0443 12.0423 0.1348 14.3121 -0.4523 -7.8357 -1.4383 -1.1334 1.0462
1.2537 99.9693 5.0918 0.4982 5.7547 29.5994 5.8118 6.0606 2.2886 0.8321 -3.1908 6.1002 1.8786 5.8374 5.5161 2.9599 3.0558 2.5016 -5.1017 -4.8284 -17.4619 5.9476 -8.9815 -25.3662 -0.0184 -0.0867 -0.1149 0.6113 -10.8340 -3.9858 -0.6560 -10.9254 3.7593 -4.6070 13.7335 10.6872 -42.1885 15.9354 15.7911 -1.7007 0.6037 -130.6473 -2.4517 0.8679 -7.7355 -15.4088 10.6554 15.6682 -60.6405 1.3997 1.8523 -10.3581 13.6435 26.1483 15.8041 -26.2080 -9.5260 1.0681 -1.8141 34.9361 -0.9851 -4.6645 -15.8402 15.9425 8.0147 -16.9801 50.8158 -3.3731 -4.9025 6.0515 -17.4258 -4.7720 -0.0768 12.7334 -0.4171 -6.5451 -1.4017 -16.0196 1.6909 -0.7612 -1.8565 -9.4733 -6.9521 -25.4584 0.0736 9.3221 0.1786 13.8998 -0.1509 -9.3314 -1.4366 -0.9035 1.0140
0.8592 99.7640 5.1860 0.8869 5.9986 33.0456 6.2422 6.1817 2.6224 0.8668 -3.0400 6.3613 1.0570 5.5459 5.8657 2.9794 2.8472 2.7175 -5.5680 -4.9547 -19.2274 5.9813 -9.0276 -27.5772 -0.0126 -0.1152 -0.1643 0.6298 -10.8793 -4.0380 -0.6656 -10.9890 3.7120 -5.2314 13.1898 10.9931 -45.3906 17.6312 16.1126 -1.5576 0.3769 -129.0036 -1.6959 2.6808 -9.7101 -15.5865 10.4316 15.4461 -60.5629 1.5188 2.0498 -12.1065 13.4836 26.4421 11.5695 -23.7795 -5.7822 2.6059 -1.3419 17.0167 1.4054 -2.7614 -15.9358 15.7297 8.0119 -16.6497 50.3149 -3.3047 -4.9582 5.8118 -18.8169 -5.3492 -0.0880 13.3737 -0.4664 -7.1711 -1.2243 -18.6108 1.6690 -0.2907 -1.8628 -9.3152 -5.3814 -27.1307 0.0795 6.9972 0.1567 13.3928 -0.9195 -11.7106 -1.4434 0.0612 1.0095
